<svg width="125" height="104" xmlns="http://www.w3.org/2000/svg"><g fill="#000" fill-rule="nonzero"><path d="M0 0h125v1.1H0zM0 102.9h125v1.1H0zM2.6 84c-.9.9-1.3 2-1.3 3.4s.4 2.5 1.3 3.3c.9.8 2 1.3 3.4 1.3 1.2 0 2.3-.3 3.3-1 .2-.1.3-.3.4-.4v-.1l.2-1v-.1l-.1-.3h-.1c-.1 0-.2.1-.4.4-.3.5-.7.9-1.3 1.2-.6.3-1.2.5-1.8.5-1 0-1.9-.4-2.6-1.2-.7-.8-1-1.9-1-3.2 0-1.1.3-2 .9-2.6.6-.6 1.4-1 2.5-1 1.3 0 2.3.7 3.1 2 .1.2.2.4.4.3.1 0 .2-.1.2-.1V85.1l-.2-1.5c0-.3-.2-.4-.3-.4l-.2.2h-.2l-.2-.1c-.8-.4-1.6-.6-2.5-.6-1.4-.1-2.6.4-3.5 1.3M93.9 82.7h-.4-.8l-1.2-.1h-.1l-.4.2-.1.2c0 .1.1.2.3.3.4.1.6.2.7.3.1.1.2.3.2 1V90c0 .7-.1.9-.1 1-.1.1-.2.2-.5.3-.3 0-.3.2-.3.3 0 .1.1.3.3.3H94.4c.3 0 .3-.1.3-.3 0-.2-.3-.3-.4-.3l-.5-.2-.3-.4c0-.1-.1-.4-.1-1.1v-4.8c0-1.1.2-1.3.4-1.4l.3-.1c.2-.1.3-.2.3-.3 0-.1-.1-.3-.3-.3h-.2zM22.3 90.2c-.6.7-1.4 1-2.3 1-1 0-1.9-.4-2.6-1.3-.7-.8-1.1-1.9-1.1-3.2 0-1.1.3-2 .8-2.6.6-.6 1.3-.9 2.2-.9 1.1 0 2 .4 2.8 1.2.7.8 1.1 1.8 1.1 3.1.1 1.2-.2 2.1-.9 2.7m.9-6.3c-.9-.8-2-1.3-3.4-1.3-.7 0-1.3.1-1.9.4-.6.3-1.2.6-1.6 1-.4.4-.7.9-.9 1.5-.2.6-.3 1.2-.3 1.8 0 1.4.4 2.5 1.3 3.4.9.9 2 1.3 3.4 1.3s2.5-.5 3.4-1.4c.9-.9 1.3-2.1 1.3-3.5 0-1.3-.5-2.4-1.3-3.2M29.7 83c0 .1 0 .2.3.3l.3.1c.2.1.6.2.6.8v6c0 .4 0 .7-.1.8-.1.1-.3.2-.5.3-.2.1-.3.2-.3.3l.1.2.2.1h.4l1.3-.1h2.5c.9 0 1.5-.3 1.9-.8.3-.3.4-.7.4-1l-.1-.2v-.1h-.1c-.2 0-.3.2-.3.2-.1.3-.5.5-1 .7-.6.2-1.2.3-2 .3-.7 0-.8-.1-.9-.1 0 0-.1-.1-.1-.8v-5.7c0-.9.3-1 .5-1h.2c.3-.1.3-.2.3-.3 0 0 0-.2-.3-.2h-.3-2.5c-.4-.1-.5.1-.5.2M41.2 83c0 .1 0 .2.3.3l.3.1c.2.1.6.2.6.8v6c0 .4 0 .7-.1.8-.1.1-.3.2-.5.3-.2.1-.3.2-.3.3l.1.2.2.1h.4l1.3-.1H46c.9 0 1.5-.3 1.9-.8.3-.3.4-.7.4-1l-.1-.3h-.1c-.1 0-.2.1-.3.2-.1.3-.5.5-1 .7-.6.2-1.2.3-2 .3-.7 0-.8-.1-.9-.1 0 0-.1-.1-.1-.8v-5.7c0-.9.3-1 .5-1h.2c.3-.1.3-.2.3-.3 0-.1-.1-.2-.3-.2h-.3-2.5c-.4-.1-.5.1-.5.2M52.7 83c0 .1 0 .3.3.3s.6.1.7.2c.1.1.2.4.2 1.1V90.4c0 .7-.3.7-.4.7l-.2.1c-.2.1-.3.2-.3.3 0 .1.1.3.4.3h.4l1.5-.1 2 .1h.5c.6 0 1.1-.2 1.5-.7.3-.4.5-.8.5-1.1l-.1-.4h-.2c-.1 0-.2.1-.3.2-.4.7-1.5 1.1-3.1 1.1-.7 0-.8-.1-.9-.1 0 0-.1-.2-.1-.6V88v-.2-.1H57c.4 0 .6.1.7.1.1.1.2.2.2.5v.2c0 .2.1.3.3.3.1 0 .3-.1.3-.3v-.2V86.4v-.2c0-.2-.1-.3-.3-.3-.2 0-.3.1-.3.3l-.2.5-.4.1-1 .1h-1-.2v-.1V84c0-.3.1-.3.1-.3s.1-.1.4-.1h1c.8 0 1.1.1 1.3.1.2 0 .3.1.4.3l.1.3v.2l.1.4h.1c.1 0 .2-.1.3-.2l.1-.5v-.9-.2c0-.2-.1-.3-.4-.3h-.3-.4-.9-1.4l-2.2-.1H53c-.2 0-.3.2-.3.3M66.2 84c-.9.9-1.3 2-1.3 3.4s.4 2.5 1.3 3.3c.9.8 2 1.3 3.4 1.3 1.2 0 2.3-.3 3.3-1 .2-.1.3-.3.4-.5v-.1l.1-.8V89.3l-.1-.3h-.1c-.1 0-.2.1-.4.4-.2.5-.6.9-1.2 1.2-.6.3-1.2.5-1.8.5-1.1 0-1.9-.4-2.6-1.2-.7-.8-1-1.9-1-3.2 0-1.1.3-2 .9-2.6.6-.6 1.4-1 2.5-1 1.3 0 2.4.7 3.1 2 .1.3.2.4.4.3.1 0 .2-.1.2-.1V85l-.2-1.5c0-.3-.2-.4-.3-.4l-.3.1h-.2l-.2-.1c-.8-.4-1.6-.6-2.5-.6-1.4.1-2.5.6-3.4 1.5M78.7 82.8c-.2 0-.3.1-.4.2l-.1.5-.1.7-.1.5c0 .2.1.3.3.3.2 0 .3-.1.3-.4.1-.3.2-.6.3-.7.1-.1.3-.2.7-.2h1.9v6.7c0 .3 0 .5-.1.7-.1.1-.3.2-.6.2s-.3.2-.3.3c0 .1.1.3.3.3h2.8c.2 0 .3-.1.3-.3 0-.1-.1-.2-.3-.3-.5-.1-.7-.3-.7-.8V84v-.3h2c.4 0 .6.1.6.1s.1.1.2.5c.1.3.2.3.3.3.1 0 .3-.1.3-.4V83.9v-.5c0-.3 0-.5-.1-.5-.1-.1-.2-.1-.5-.1h-7zM107 90.2c-.6.7-1.4 1-2.3 1-1 0-1.9-.4-2.6-1.3-.7-.8-1.1-1.9-1.1-3.2 0-1.1.3-2 .8-2.6.6-.6 1.3-.9 2.2-.9 1.1 0 2 .4 2.8 1.2.7.8 1.1 1.8 1.1 3.1 0 1.2-.3 2.1-.9 2.7m.8-6.3c-.9-.8-2-1.3-3.4-1.3-.7 0-1.3.1-1.9.4-.6.3-1.2.6-1.6 1-.4.4-.7.9-.9 1.5-.2.6-.3 1.2-.3 1.8 0 1.4.4 2.5 1.3 3.4.9.9 2 1.3 3.4 1.3s2.5-.5 3.4-1.4c.9-.9 1.3-2.1 1.3-3.5.1-1.3-.4-2.4-1.3-3.2M113.9 83c0 .1 0 .3.3.3.4.1.7.3.9.6.2.4.3 1 .3 1.7v4.3c0 .5-.1.8-.2.9-.1.2-.3.3-.7.4-.2.1-.3.2-.3.3 0 .1 0 .3.3.3H116.9c.2 0 .3-.1.3-.3 0-.1 0-.3-.3-.3-.4-.1-.5-.1-.6-.2-.1-.1-.1-.2-.2-.5v-.4-4.6-.1l5.4 6.1.1.2.2.1c.2 0 .3-.1.3-.3v-6.2-1.1c0-.5.1-.7.1-.8.1-.1.2-.2.4-.2.2-.1.2-.2.2-.3 0-.2-.1-.3-.3-.3h-.3H120.4h-.3c-.2 0-.3.1-.3.3 0 .1 0 .3.3.3.5.1.7.2.8.3.1.1.2.3.3.7l.1 1.4v3.9c-.2-.2-5.9-6.6-5.9-6.6l-.4-.2h-.4-.4-.3-.1c.2 0 .1.1.1.3M38.6 43.4h-4.5V29.9h4.6c5.8 0 8.7 2.1 8.7 6.6 0 4.4-3 6.9-8.8 6.9m11.8 13.3c0 5.7-3.6 7.9-10.9 7.9h-5.3V47.1h5.2c7 0 11 3.7 11 9.6m47-1.1c-3.9 6.1-9.6 9.3-16.1 9.3-7.4 0-13.5-4.4-16.1-11.2 8-.4 13.3-6 13.4-14.7h3.1l2.2-5-1-.4c-1 1.8-3.4 1.8-5.7 1.8h-8.1l-1.5 5.2 1.1.5c1-1.9 2.3-2 4.7-2h1.2v.5c0 6.1-3.7 9.9-9.4 9.9-.4 0-.7-.1-1-.1-.2-1.1-.3-2.2-.3-3.3 0-10.3 6.4-16.9 15.5-16.9 5.7 0 10.1 2.6 13.7 7.8l1.2-.8-1.9-8.1-.8-.1c-.5.4-.9.6-1.3.6-1.3 0-4.9-2.8-11.2-2.8-11.4 0-20.3 9-20.3 21.7v.1c-2.7-1.9-4.4-5.2-4.4-9.3 0-6.7 4.3-10.6 12.2-10.7v-3.2h-1.5c-4.6 0-6.8-1.8-6.8-5.2 0-2.6 1.8-4.2 4.2-4.2 2.4 0 3.8 1.2 5.2 4l1.1-.2-.6-7.1-.9-.1c-.4.5-.8.6-1.4.6-.7 0-2-.6-4-.6-4.4 0-7.8 3.4-7.8 8.1 0 3.2 1.5 5.3 4.6 6.7-3.2 1.4-5.5 3.4-6.9 5.9-1.6-3.7-5.8-6.2-12.5-6.2H27v1.2c1.8.6 2.1 1.6 2.1 3.4v32.7c0 1.9-.2 2.8-2.1 3.4V68h15.1c8.4 0 13.2-4.9 13.2-11.8 0-5.4-3.6-9.6-10.1-11.5 2.1-.7 3.8-1.8 5-3.2.8 5.5 4.3 9.6 9.2 11.3 1.1 5.1 3.7 9.2 7.8 12.2 3.5 2.6 8 4 12.5 4 8.7 0 15.3-3.8 19.4-11.2l-1.7-2.2z"/></g></svg>